<svg width="20" height="20" viewBox="0 0 20 20" fill="none" xmlns="http://www.w3.org/2000/svg">
<path fill-rule="evenodd" clip-rule="evenodd" d="M0.192795 4.57844C-0.638174 2.08552 1.91012 -0.195313 4.29602 0.905875L18.0983 7.27616C20.422 8.34867 20.422 11.6514 18.0983 12.7239L4.29603 19.0942C1.91012 20.1953 -0.638168 17.9145 0.192805 15.4216L1.68376 10.9487C1.88903 10.3329 1.88903 9.66716 1.68377 9.05136L0.192795 4.57844ZM3.4579 2.72179L17.2601 9.09208C18.0347 9.44958 18.0347 10.5505 17.2601 10.908L3.45791 17.2782C2.66261 17.6453 1.81318 16.885 2.09017 16.054L3.58113 11.5812C3.64486 11.39 3.69672 11.1959 3.73671 11H12C12.5523 11 13 10.5523 13 10C13 9.44772 12.5523 9.00001 12 9.00001H3.73669C3.69671 8.80414 3.64486 8.61008 3.58113 8.41891L2.09016 3.94598C1.81317 3.11501 2.66261 2.35473 3.4579 2.72179Z" fill="#6F767E"/>
</svg>
