<svg width="14" height="10" viewBox="0 0 14 10" fill="none" xmlns="http://www.w3.org/2000/svg">
<path fill-rule="evenodd" clip-rule="evenodd" d="M13.2655 5.75558C12.4733 7.07654 10.4767 9.66668 7 9.66668C3.52332 9.66668 1.52672 7.07654 0.734527 5.75558C0.453016 5.28617 0.453016 4.71385 0.734527 4.24444C1.52672 2.92348 3.52332 0.333344 7 0.333344C10.4767 0.333344 12.4733 2.92348 13.2655 4.24444C13.547 4.71385 13.547 5.28617 13.2655 5.75558ZM7 7.00001C8.10457 7.00001 9 6.10458 9 5.00001C9 3.89544 8.10457 3.00001 7 3.00001C5.89543 3.00001 5 3.89544 5 5.00001C5 6.10458 5.89543 7.00001 7 7.00001Z" fill="#6F767E"/>
</svg>
