<svg width="32" height="32" viewBox="0 0 32 32" fill="none" xmlns="http://www.w3.org/2000/svg">
<path d="M16 1C13.0333 1 10.1332 1.87973 7.66645 3.52796C5.19972 5.17618 3.27713 7.51885 2.14181 10.2597C1.0065 13.0006 0.709449 16.0166 1.28823 18.9263C1.86701 21.8361 3.29562 24.5088 5.3934 26.6066C7.49119 28.7044 10.1639 30.133 13.0737 30.7118C15.9834 31.2905 18.9994 30.9935 21.7403 29.8582C24.4811 28.7229 26.8238 26.8003 28.472 24.3335C30.1203 21.8668 31 18.9667 31 16C31.0002 14.0301 30.6123 12.0795 29.8585 10.2596C29.1048 8.43959 27.9999 6.78594 26.607 5.39303C25.2141 4.00012 23.5604 2.89524 21.7404 2.14147C19.9205 1.38771 17.9699 0.999837 16 1ZM20.7693 23.7287C20.7131 23.8687 20.6277 23.9951 20.5187 24.0993C20.4097 24.2036 20.2797 24.2834 20.1374 24.3333C19.9951 24.3833 19.8437 24.4022 19.6935 24.3888C19.5432 24.3755 19.3976 24.3302 19.2663 24.2559L15.1943 21.0919L12.5808 23.503C12.5201 23.5478 12.4492 23.5766 12.3745 23.5868C12.2998 23.597 12.2237 23.5883 12.1533 23.5614L12.6543 19.0787L12.6703 19.0914L12.6806 19.0029C12.6806 19.0029 20.0081 12.3317 20.3066 12.0474C20.6088 11.7639 20.5091 11.7024 20.5091 11.7024C20.5263 11.3566 19.9668 11.7024 19.9668 11.7024L10.258 17.9485L6.21477 16.5715C6.21477 16.5715 5.59377 16.3487 5.53527 15.859C5.47377 15.373 6.23501 15.109 6.23501 15.109L22.3105 8.72273C22.3105 8.72273 23.632 8.13395 23.632 9.109L20.7693 23.7287Z" fill="#FF6A55"/>
</svg>
