<svg width="32" height="32" viewBox="0 0 32 32" fill="none" xmlns="http://www.w3.org/2000/svg">
<g clip-path="url(#clip0_3524_2258382)">
<path d="M16 0.8125C7.6125 0.8125 0.8125 7.6125 0.8125 16C0.8125 19.0687 1.725 21.9312 3.29375 24.3187L1.3375 30.9437L8.21875 29.0375C10.4937 30.4 13.1562 31.1812 16 31.1812C24.3875 31.1812 31.1875 24.3812 31.1875 15.9937C31.1875 7.6125 24.3875 0.8125 16 0.8125Z" fill="#FF6A55"/>
<path d="M24.3438 20.1687C24.325 19.9687 24.2063 19.7937 24.025 19.7125C22.8 19.15 21.5688 18.5875 20.3438 18.025C20.2063 17.9625 20.0375 17.9937 19.9375 18.1125L18.275 19.9875C18.1438 20.1375 17.9375 20.1875 17.7563 20.1125C16.8938 19.7562 15.7313 19.1562 14.5563 18.1437C13.15 16.9375 12.325 15.6437 11.8625 14.8C12.0938 14.6437 12.725 14.175 13.0063 13.3062C13.0063 13.3 13.0125 13.2937 13.0125 13.2937C13.1875 12.7562 13.15 12.175 12.9563 11.6437C12.625 10.7625 11.9625 9.05623 11.7063 8.79373C11.6625 8.74998 11.6125 8.70623 11.6125 8.70623C11.425 8.53748 11.1813 8.44373 10.925 8.43123C10.8375 8.42498 10.7438 8.42498 10.6438 8.42498C10.3563 8.41873 10.1 8.41873 9.91251 8.44373C9.38126 8.51873 8.99376 8.87498 8.75001 9.17498C8.45626 9.53123 8.10626 10.0625 7.87501 10.7625C7.85626 10.825 7.83751 10.8812 7.81876 10.9437C7.56251 11.8312 7.61251 12.7812 7.91876 13.6562C8.20626 14.475 8.62501 15.45 9.25626 16.4812C10.325 18.2375 11.4875 19.325 12.275 20.0437C13.1625 20.8625 14.2625 21.8687 16.0063 22.7062C17.6188 23.4812 19.0813 23.7687 20.0625 23.8875C20.4625 23.925 21.2 23.9312 22.0438 23.6125C22.4313 23.4625 22.7563 23.2812 23.0188 23.0875C23.7125 22.5937 24.2 21.85 24.325 21.0125C24.325 21.0062 24.325 21 24.325 20.9937C24.3688 20.675 24.3625 20.4 24.3438 20.1687Z" fill="white"/>
</g>
<defs>
<clipPath id="clip0_3524_2258382">
<rect width="32" height="32" fill="white"/>
</clipPath>
</defs>
</svg>
