<svg width="42" height="40" viewBox="0 0 42 40" fill="none" xmlns="http://www.w3.org/2000/svg">
<path d="M21 29C21 34.5229 25.4772 39 31 39C36.5228 39 41 34.5229 41 29C41 23.4772 36.5228 19 31 19C25.4772 19 21 23.4772 21 29ZM21 29C21 26.7484 21.7442 24.6705 23 22.999V5M21 29C21 30.6507 21.4 32.208 22.1083 33.5803C20.4233 35.0035 16.5317 36 12 36C5.92487 36 1 34.2091 1 32V5M23 5C23 7.20914 18.0751 9 12 9C5.92487 9 1 7.20914 1 5M23 5C23 2.79086 18.0751 1 12 1C5.92487 1 1 2.79086 1 5M1 23C1 25.2091 5.92487 27 12 27C16.378 27 20.1586 26.07 21.9293 24.7236M23 14C23 16.2091 18.0751 18 12 18C5.92487 18 1 16.2091 1 14" stroke="#2A85FF" stroke-width="1.5" stroke-linecap="round" stroke-linejoin="round"/>
</svg>
