<svg width="48" height="48" viewBox="0 0 48 48" fill="none" xmlns="http://www.w3.org/2000/svg">
<path d="M40 25V13.6C40 10.2397 40 8.55953 39.346 7.27606C38.7708 6.14708 37.8529 5.2292 36.7239 4.65396C35.4405 4 33.7603 4 30.4 4H17.6C14.2397 4 12.5595 4 11.2761 4.65396C10.1471 5.2292 9.2292 6.14708 8.65396 7.27606C8 8.55953 8 10.2397 8 13.6V34.4C8 37.7603 8 39.4405 8.65396 40.7239C9.2292 41.8529 10.1471 42.7708 11.2761 43.346C12.5595 44 14.2397 44 17.6 44H24M28 22H16M20 30H16M32 14H16M29 38L33 42L42 33" stroke="#83BF6E" stroke-width="1.5" stroke-linecap="round" stroke-linejoin="round"/>
</svg>
