<svg width="48" height="48" viewBox="0 0 48 48" fill="none" xmlns="http://www.w3.org/2000/svg">
<path d="M40 25V13.6C40 10.2397 40 8.55953 39.346 7.27606C38.7708 6.14708 37.8529 5.2292 36.7239 4.65396C35.4405 4 33.7603 4 30.4 4H17.6C14.2397 4 12.5595 4 11.2761 4.65396C10.1471 5.2292 9.2292 6.14708 8.65396 7.27606C8 8.55953 8 10.2397 8 13.6V34.4C8 37.7603 8 39.4405 8.65396 40.7239C9.2292 41.8529 10.1471 42.7708 11.2761 43.346C12.5595 44 14.2396 44 17.5997 44H25M28 22H16M20 30H16M32 14H16" stroke="#E4A52B" stroke-width="1.5" stroke-linecap="round" stroke-linejoin="round"/>
<path d="M39.7649 35.7717C39.7476 35.7337 39.337 34.822 38.4299 33.915C37.2163 32.7033 35.6868 32.0625 33.9993 32.0625C32.3118 32.0625 30.7823 32.7033 29.5701 33.915C28.6631 34.822 28.2524 35.7337 28.2337 35.7717C28.2019 35.8437 28.1855 35.9215 28.1855 36.0002C28.1855 36.0789 28.2019 36.1568 28.2337 36.2288C28.251 36.2672 28.6616 37.1784 29.5691 38.0855C30.7823 39.2972 32.3118 39.9375 33.9993 39.9375C35.6868 39.9375 37.2163 39.2972 38.4281 38.0855C39.3356 37.1784 39.7462 36.2672 39.7635 36.2288C39.7955 36.1568 39.8121 36.0791 39.8124 36.0004C39.8126 35.9217 39.7965 35.8438 39.7649 35.7717ZM37.6059 37.3186C36.5995 38.3095 35.3863 38.8125 33.9993 38.8125C32.6123 38.8125 31.3991 38.3095 30.3941 37.3181C29.9987 36.9268 29.6585 36.4834 29.3831 36C29.6586 35.5168 29.9988 35.0735 30.3941 34.6823C31.3996 33.6905 32.6123 33.1875 33.9993 33.1875C35.3863 33.1875 36.599 33.6905 37.6045 34.6823C37.9999 35.0735 38.3401 35.5168 38.6156 36C38.3401 36.4833 37.9999 36.9268 37.6045 37.3181L37.6059 37.3186ZM33.9993 33.9375C33.5914 33.9375 33.1926 34.0585 32.8534 34.2851C32.5143 34.5117 32.2499 34.8338 32.0938 35.2107C31.9377 35.5876 31.8969 36.0023 31.9764 36.4024C32.056 36.8025 32.2525 37.17 32.5409 37.4584C32.8293 37.7469 33.1968 37.9433 33.5969 38.0229C33.997 38.1025 34.4117 38.0616 34.7886 37.9055C35.1655 37.7494 35.4876 37.485 35.7142 37.1459C35.9408 36.8067 36.0618 36.4079 36.0618 36C36.0612 35.4532 35.8437 34.9289 35.457 34.5423C35.0704 34.1556 34.5461 33.9381 33.9993 33.9375ZM33.9993 36.9375C33.8139 36.9375 33.6326 36.8825 33.4785 36.7795C33.3243 36.6765 33.2041 36.5301 33.1332 36.3588C33.0622 36.1875 33.0436 35.999 33.0798 35.8171C33.116 35.6352 33.2053 35.4682 33.3364 35.3371C33.4675 35.206 33.6346 35.1167 33.8164 35.0805C33.9983 35.0443 34.1868 35.0629 34.3581 35.1339C34.5294 35.2048 34.6758 35.325 34.7788 35.4792C34.8818 35.6333 34.9368 35.8146 34.9368 36C34.9368 36.2486 34.838 36.4871 34.6622 36.6629C34.4864 36.8387 34.2479 36.9375 33.9993 36.9375Z" fill="#E4A52B"/>
</svg>
