<svg width="25" height="24" viewBox="0 0 25 24" fill="none" xmlns="http://www.w3.org/2000/svg">
<path d="M11.0498 3.00161C11.0498 2.67024 10.7812 2.40161 10.4498 2.40161C10.1184 2.40161 9.84982 2.67024 9.84982 3.00161V4.80113C9.60414 4.88777 9.37352 5.02935 9.17702 5.22584L3.07408 11.3288C2.37114 12.0317 2.37114 13.1714 3.07408 13.8743L8.27702 19.0773C8.97997 19.7803 10.1197 19.7803 10.8226 19.0773L16.9255 12.9743C17.6285 12.2714 17.6285 11.1317 16.9255 10.4288L11.7226 5.22584C11.5261 5.02935 11.2955 4.88777 11.0498 4.80113V3.00161ZM16.1725 12.0016H4.09831L9.84982 6.25011V7.80161C9.84982 8.13298 10.1184 8.40161 10.4498 8.40161C10.7812 8.40161 11.0498 8.13298 11.0498 7.80161V6.25011L16.077 11.2773C16.2733 11.4736 16.3051 11.7721 16.1725 12.0016Z" fill="#6F767E"/>
<path d="M19.4721 13.6723C19.1955 13.1981 18.5103 13.1981 18.2337 13.6723L16.2508 17.0715C15.0794 19.0797 16.528 21.6017 18.8529 21.6017C21.1778 21.6017 22.6263 19.0797 21.4548 17.0715L19.4721 13.6723Z" fill="#6F767E"/>
</svg>
