<svg width="28" height="24" viewBox="0 0 28 24" fill="none" xmlns="http://www.w3.org/2000/svg">
<path d="M13.26 15.0017C13.0841 14.6956 12.9924 14.3484 12.9942 13.9953C12.9959 13.6423 13.0911 13.296 13.27 12.9917C14.0443 12.9287 14.764 12.5678 15.2776 11.9849C15.7912 11.402 16.0587 10.6426 16.0237 9.86648C15.9887 9.09039 15.654 8.35813 15.09 7.82381C14.5261 7.28949 13.7769 6.99477 13 7.00169H9C8.20435 7.00169 7.44129 7.31776 6.87868 7.88037C6.31607 8.44298 6 9.20604 6 10.0017C6 10.7973 6.31607 11.5604 6.87868 12.123C7.44129 12.6856 8.20435 13.0017 9 13.0017H9.08C8.96923 13.6638 8.96923 14.3396 9.08 15.0017H9C7.67392 15.0017 6.40215 14.4749 5.46447 13.5372C4.52678 12.5995 4 11.3278 4 10.0017C4 8.67561 4.52678 7.40384 5.46447 6.46616C6.40215 5.52848 7.67392 5.00169 9 5.00169H13C14.3261 4.96721 15.6115 5.46093 16.5736 6.37423C17.5357 7.28754 18.0955 8.54561 18.13 9.87169C18.1645 11.1978 17.6708 12.4832 16.7575 13.4453C15.8442 14.4074 14.5861 14.9672 13.26 15.0017ZM14.74 9.00169C14.9159 9.3078 15.0076 9.65501 15.0058 10.008C15.0041 10.3611 14.9089 10.7074 14.73 11.0117C13.9557 11.0747 13.236 11.4356 12.7224 12.0185C12.2088 12.6014 11.9413 13.3608 11.9763 14.1369C12.0113 14.913 12.346 15.6453 12.91 16.1796C13.4739 16.7139 14.2231 17.0086 15 17.0017H19C19.7956 17.0017 20.5587 16.6856 21.1213 16.123C21.6839 15.5604 22 14.7973 22 14.0017C22 13.206 21.6839 12.443 21.1213 11.8804C20.5587 11.3178 19.7956 11.0017 19 11.0017H18.92C19.0308 10.3396 19.0308 9.66376 18.92 9.00169H19C20.3261 9.00169 21.5979 9.52848 22.5355 10.4662C23.4732 11.4038 24 12.6756 24 14.0017C24 15.3278 23.4732 16.5995 22.5355 17.5372C21.5979 18.4749 20.3261 19.0017 19 19.0017H15C14.3434 19.0188 13.6898 18.9063 13.0767 18.6708C12.4635 18.4353 11.9028 18.0814 11.4264 17.6291C10.4643 16.7158 9.90448 15.4578 9.87 14.1317C9.83552 12.8056 10.3292 11.5201 11.2425 10.5581C12.1558 9.59602 13.4139 9.03617 14.74 9.00169Z" fill="#6F767E"/>
</svg>
