<svg width="24" height="24" viewBox="0 0 24 24" fill="none" xmlns="http://www.w3.org/2000/svg">
<path d="M7.38028 9.85323C8.07627 11.3029 9.02506 12.6615 10.2266 13.8631C11.4282 15.0646 12.7869 16.0134 14.2365 16.7094C14.3612 16.7693 14.4235 16.7992 14.5024 16.8222C14.7828 16.904 15.127 16.8453 15.3644 16.6752C15.4313 16.6274 15.4884 16.5702 15.6027 16.4559C15.9523 16.1063 16.1271 15.9315 16.3029 15.8172C16.9658 15.3862 17.8204 15.3862 18.4833 15.8172C18.6591 15.9315 18.8339 16.1063 19.1835 16.4559L19.3783 16.6508C19.9098 17.1822 20.1755 17.448 20.3198 17.7333C20.6069 18.3009 20.6069 18.9712 20.3198 19.5387C20.1755 19.8241 19.9098 20.0898 19.3783 20.6213L19.2207 20.7789C18.6911 21.3085 18.4263 21.5734 18.0662 21.7756C17.6667 22 17.0462 22.1614 16.588 22.16C16.1751 22.1588 15.8928 22.0787 15.3284 21.9185C12.295 21.0575 9.43264 19.433 7.04466 17.0451C4.65668 14.6571 3.03221 11.7947 2.17124 8.76131C2.01103 8.19687 1.93092 7.91464 1.9297 7.5017C1.92833 7.04348 2.08969 6.42298 2.31411 6.02348C2.51636 5.66345 2.78117 5.39863 3.3108 4.86901L3.46843 4.71138C3.99987 4.17993 4.2656 3.91421 4.55098 3.76987C5.11854 3.4828 5.7888 3.4828 6.35636 3.76987C6.64174 3.91421 6.90746 4.17993 7.43891 4.71138L7.63378 4.90625C7.98338 5.25585 8.15819 5.43066 8.27247 5.60643C8.70347 6.26932 8.70347 7.1239 8.27247 7.78679C8.15819 7.96257 7.98338 8.13738 7.63378 8.48698C7.51947 8.60129 7.46231 8.65845 7.41447 8.72526C7.24446 8.96269 7.18576 9.30695 7.26748 9.58731C7.29048 9.6662 7.32041 9.72854 7.38028 9.85323Z" fill="#C31212"/>
<path d="M14.9961 4V9M14.9961 9L19.9961 9M14.9961 9L20.9961 3" stroke="#C31212" stroke-width="1.5" stroke-linecap="round" stroke-linejoin="round"/>
</svg>
