<svg width="15" height="16" viewBox="0 0 15 16" fill="none" xmlns="http://www.w3.org/2000/svg">
<path d="M4.73684 4.80171V8.00171L0 4.00171L4.73684 0.00170898V3.20171H8.68421C10.3593 3.20171 11.9657 3.87599 13.1501 5.07623C14.3346 6.27646 15 7.90432 15 9.60171C15 11.2991 14.3346 12.927 13.1501 14.1272C11.9657 15.3274 10.3593 16.0017 8.68421 16.0017H1.57895V14.4017H8.68421C9.9405 14.4017 11.1453 13.896 12.0337 12.9958C12.922 12.0956 13.4211 10.8747 13.4211 9.60171C13.4211 8.32867 12.922 7.10777 12.0337 6.2076C11.1453 5.30742 9.9405 4.80171 8.68421 4.80171H4.73684Z" fill="#6F767E"/>
</svg>
