<svg width="25" height="24" viewBox="0 0 25 24" fill="none" xmlns="http://www.w3.org/2000/svg">
<path d="M8.40714 7.31989H10.2118V10.6409C10.2118 11.0718 10.2864 11.4132 10.4355 11.6651C10.588 11.917 10.8134 12.0976 11.1117 12.207C11.41 12.3163 11.7812 12.371 12.2253 12.371C12.4242 12.371 12.638 12.3644 12.8667 12.3511C13.0987 12.3346 13.3323 12.313 13.5676 12.2865C13.803 12.2567 14.0284 12.2219 14.2438 12.1821C14.4592 12.139 14.6515 12.0926 14.8205 12.0429V13.5443C14.6515 13.5974 14.4625 13.6454 14.2537 13.6885C14.0449 13.7316 13.8245 13.768 13.5925 13.7979C13.3605 13.8277 13.1285 13.8509 12.8965 13.8675C12.6645 13.884 12.4408 13.8923 12.2253 13.8923C11.4464 13.8923 10.7703 13.7813 10.1969 13.5592C9.62683 13.3339 9.18602 12.9825 8.87447 12.5053C8.56291 12.028 8.40714 11.4065 8.40714 10.6409V7.31989ZM14.5172 7.31989H16.3319V17.5017H14.5172V7.31989Z" fill="#6F767E"/>
<path d="M7.09961 20.2858H17.5698V21.2403H7.09961V20.2858Z" fill="#6F767E"/>
</svg>
