<svg width="15" height="16" viewBox="0 0 15 16" fill="none" xmlns="http://www.w3.org/2000/svg">
<path d="M10.2632 4.80171H6.31579C5.0595 4.80171 3.85467 5.30742 2.96634 6.2076C2.07801 7.10777 1.57895 8.32867 1.57895 9.60171C1.57895 10.8747 2.07801 12.0956 2.96634 12.9958C3.85467 13.896 5.0595 14.4017 6.31579 14.4017H13.4211V16.0017H6.31579C4.64074 16.0017 3.03429 15.3274 1.84985 14.1272C0.665412 12.927 0 11.2991 0 9.60171C0 7.90432 0.665412 6.27646 1.84985 5.07623C3.03429 3.87599 4.64074 3.20171 6.31579 3.20171H10.2632V0.00170898L15 4.00171L10.2632 8.00171V4.80171Z" fill="#6F767E"/>
</svg>
