<svg width="22" height="19" viewBox="0 0 22 19" fill="none" xmlns="http://www.w3.org/2000/svg">
<path d="M15 1.46776C16.4817 2.20411 17.5 3.73314 17.5 5.5C17.5 7.26686 16.4817 8.79589 15 9.53224M17 14.7664C18.5115 15.4503 19.8725 16.565 21 18M1 18C2.94649 15.5226 5.58918 14 8.5 14C11.4108 14 14.0535 15.5226 16 18M13 5.5C13 7.98528 10.9853 10 8.5 10C6.01472 10 4 7.98528 4 5.5C4 3.01472 6.01472 1 8.5 1C10.9853 1 13 3.01472 13 5.5Z" stroke="#8E59FF" stroke-width="2" stroke-linecap="round" stroke-linejoin="round"/>
</svg>
